<mxfile host="app.diagrams.net" modified="2022-09-08T13:29:59.075Z" agent="5.0 (Macintosh; Intel Mac OS X 10_15_7) AppleWebKit/537.36 (KHTML, like Gecko) Chrome/105.0.0.0 Safari/537.36" etag="DW7vITpU7vUKRy2D7iWD" version="20.3.0" type="github">
  <diagram id="6HKz0GtLNzkLIU2qla94" name="第 1 页">
    <mxGraphModel dx="1156" dy="798" grid="1" gridSize="10" guides="1" tooltips="1" connect="1" arrows="1" fold="1" page="1" pageScale="1" pageWidth="1169" pageHeight="1654" math="0" shadow="0">
      <root>
        <mxCell id="0" />
        <mxCell id="1" parent="0" />
        <mxCell id="h_IuV2BAXFGJQlSnBs5D-1" value="&lt;font style=&quot;font-size: 38px;&quot;&gt;&lt;b&gt;Data area&lt;/b&gt;&lt;/font&gt;" style="rounded=0;whiteSpace=wrap;html=1;strokeWidth=2;" vertex="1" parent="1">
          <mxGeometry x="160" y="360" width="340" height="120" as="geometry" />
        </mxCell>
        <mxCell id="h_IuV2BAXFGJQlSnBs5D-2" value="&lt;font style=&quot;font-size: 38px;&quot;&gt;&lt;b&gt;&amp;nbsp;Index area&lt;/b&gt;&lt;/font&gt;" style="rounded=0;whiteSpace=wrap;html=1;strokeWidth=2;" vertex="1" parent="1">
          <mxGeometry x="500" y="360" width="190" height="120" as="geometry" />
        </mxCell>
        <mxCell id="h_IuV2BAXFGJQlSnBs5D-3" value="&lt;font style=&quot;font-size: 38px;&quot;&gt;&lt;b&gt;Meta Data&lt;/b&gt;&lt;/font&gt;" style="rounded=0;whiteSpace=wrap;html=1;strokeWidth=2;" vertex="1" parent="1">
          <mxGeometry x="690" y="360" width="120" height="120" as="geometry" />
        </mxCell>
        <mxCell id="h_IuV2BAXFGJQlSnBs5D-6" value="" style="shape=curlyBracket;whiteSpace=wrap;html=1;rounded=1;strokeWidth=3;fontSize=38;rotation=-90;" vertex="1" parent="1">
          <mxGeometry x="475" y="185" width="20" height="650" as="geometry" />
        </mxCell>
        <mxCell id="h_IuV2BAXFGJQlSnBs5D-7" value="&lt;b&gt;SSTable&lt;/b&gt;" style="text;html=1;align=center;verticalAlign=middle;resizable=0;points=[];autosize=1;strokeColor=none;fillColor=none;fontSize=38;" vertex="1" parent="1">
          <mxGeometry x="400" y="530" width="170" height="60" as="geometry" />
        </mxCell>
      </root>
    </mxGraphModel>
  </diagram>
</mxfile>
